<svg xmlns="http://www.w3.org/2000/svg" width="13" height="13" viewBox="0 0 13 13">
  <metadata><?xpacket begin="﻿" id="W5M0MpCehiHzreSzNTczkc9d"?>
<x:xmpmeta xmlns:x="adobe:ns:meta/" x:xmptk="Adobe XMP Core 5.6-c140 79.160451, 2017/05/06-01:08:21">
   <rdf:RDF xmlns:rdf="http://www.w3.org/1999/02/22-rdf-syntax-ns#">
      <rdf:Description rdf:about=""/>
   </rdf:RDF>
</x:xmpmeta>
                                                                                                             
<?xpacket end="w"?></metadata>
<defs>
    <style>
      .cls-1 {
        fill: #c5e1ff;
        fill-rule: evenodd;
      }
    </style>
  </defs>
  <path id="delete" class="cls-1" d="M3588.45,1605h-7.9l-1.1-11h10.1Zm-7-1h6.1l0.9-9h-7.9Zm6.05-9.5h-1v-0.22a1.289,1.289,0,0,0-1.28-1.28h-1.44a1.282,1.282,0,0,0-1.28,1.28v0.22h-1v-0.22a2.279,2.279,0,0,1,2.28-2.28h1.44a2.279,2.279,0,0,1,2.28,2.28v0.22Zm3.5,0.5h-13v-1h13v1Zm-3.5,2h-6v-1h6v1Zm-1,2h-4v-1h4v1Z" transform="translate(-3578 -1592)"/>
</svg>
