<svg xmlns="http://www.w3.org/2000/svg" viewBox="0 0 14 14"><defs><style>.cls-1{fill:#c5e1ff;}</style></defs><title>more photos</title><g id="Layer_2" data-name="Layer 2"><g id="Layer_10" data-name="Layer 10"><path class="cls-1" d="M12.41,0H3.59A1.59,1.59,0,0,0,2,1.59V2H1.59A1.59,1.59,0,0,0,0,3.59v8.82A1.59,1.59,0,0,0,1.59,14h8.82A1.59,1.59,0,0,0,12,12.41V12h.41A1.59,1.59,0,0,0,14,10.41V1.59A1.59,1.59,0,0,0,12.41,0ZM11,12.41a.6.6,0,0,1-.59.59H1.59A.6.6,0,0,1,1,12.41V3.59A.6.6,0,0,1,1.59,3H2v7.41A1.59,1.59,0,0,0,3.59,12H11ZM13,7,11.7,5.7a.77.77,0,0,0-1.09,0l-2.95,3L6.07,7.07a1.06,1.06,0,0,0-1.49,0L3,8.65V1.59A.6.6,0,0,1,3.59,1h8.82a.6.6,0,0,1,.59.59Z"/><circle class="cls-1" cx="7.25" cy="3.75" r="1.25"/></g></g></svg>