<svg xmlns="http://www.w3.org/2000/svg" width="32.69" height="21.02" viewBox="0 0 32.69 21.02">
    <g id="Group_133" data-name="Group 133" transform="translate(-1042.92 -489)">
        <path id="_-e-Shape_557" d="M3879.99 1824.98l-9.34 4.52c.09 6.36 4.3 11.04 8.98 13.51 4.68-2.47 8.89-7.15 8.98-13.51zm3.1 5.13l1.44 1.4-5.25 5.1-3.5-3.39 1.44-1.4 2.06 1.99" fill="#ff4d6a" fill-rule="evenodd" data-name="-e-Shape 557" transform="translate(-2813 -1335.98)"/>
        <path id="_-e-Shape_556" d="M3869.25 1835h-13.33v5h16.25a17.308 17.308 0 0 1-2.92-5zm-11.31 3v-1h3.03v1zm20.13 6.76a20.237 20.237 0 0 1-5.01-3.76h-17.14v3.38a1.637 1.637 0 0 0 1.64 1.62h19.95a1.651 1.651 0 0 0 1.4-.79zm-17.1-.76h-3.03v-1h3.03zm7.23-14.49v-.51h-10.64a1.637 1.637 0 0 0-1.64 1.62v3.38h12.98a16.848 16.848 0 0 1-.7-4.49zm-7.23 2.49h-3.03v-1h3.03z" fill="#c5e1ff" data-name="-e-Shape 556" transform="translate(-2813 -1335.98)"/>
    </g>
</svg>
