<svg xmlns="http://www.w3.org/2000/svg" width="31.61" height="21.09" viewBox="0 0 31.61 21.09"><defs><style>.cls-1{fill:#c4e0ff;}.cls-2{fill:#6cfff8;}</style></defs><title>anonymization_server2</title><g id="Layer_2" data-name="Layer 2"><g id="Layer_1-2" data-name="Layer 1"><path class="cls-1" d="M13.19,10.09H0v5H16.09A17.6,17.6,0,0,1,13.19,10.09ZM2,13.09v-1H5v1Z"/><path class="cls-1" d="M21.93,19.85a20.39,20.39,0,0,1-5-3.76H0v3.37a1.63,1.63,0,0,0,1.62,1.63H21.38a1.6,1.6,0,0,0,1.38-.79ZM5,19.09H2v-1H5Z"/><path class="cls-1" d="M12.16,4.59v-.5H1.62A1.62,1.62,0,0,0,0,5.71V9.09H12.86A16.14,16.14,0,0,1,12.16,4.59ZM5,7.09H2v-1H5Z"/><path class="cls-2" d="M23.16,0,14,4.57c.09,6.43,4.21,11.17,8.81,13.66,4.59-2.49,8.71-7.23,8.8-13.66Zm3,5.19L27.62,6.6l-5.16,5.16L19,8.33l1.42-1.42,2,2"/></g></g></svg>