<svg xmlns="http://www.w3.org/2000/svg" width="22.76" height="17" viewBox="0 0 22.76 17"><defs><style>.cls-1{fill:#c4e0ff;}</style></defs><title>anonymization_server</title><g id="Layer_2" data-name="Layer 2"><g id="Layer_1-2" data-name="Layer 1"><path class="cls-1" d="M13.19,6H0v5H16.09A17.46,17.46,0,0,1,13.19,6ZM2,9V8H5V9Z"/><path class="cls-1" d="M21.93,15.76A20.14,20.14,0,0,1,17,12H0v3.38A1.63,1.63,0,0,0,1.62,17H21.38a1.6,1.6,0,0,0,1.38-.79ZM5,15H2V14H5Z"/><path class="cls-1" d="M12.16.51V0H1.62A1.63,1.63,0,0,0,0,1.62V5H12.86A16.07,16.07,0,0,1,12.16.51ZM5,3H2V2H5Z"/></g></g></svg>