<svg xmlns="http://www.w3.org/2000/svg" width="34" height="18.44" viewBox="0 0 34 18.44"><defs><style>.cls-1{fill:#c4e0ff;}.cls-2{fill:#6cfff8;}</style></defs><title>cloud_cloud server</title><g id="Layer_2" data-name="Layer 2"><g id="Layer_1-2" data-name="Layer 1"><path class="cls-1" d="M19.66,14.53H15.85a5.33,5.33,0,0,1-3.23-1.09H0v3.38a1.62,1.62,0,0,0,1.62,1.62H21.38A1.62,1.62,0,0,0,23,16.82V14.53ZM5,16.44H2v-1H5Z"/><path class="cls-1" d="M14.53,4.11a5.47,5.47,0,0,1,.62-1.48,5.69,5.69,0,0,1,.93-1.19H1.62A1.63,1.63,0,0,0,0,3.07V6.44H11.31A5.38,5.38,0,0,1,14.53,4.11ZM2,4.44v-1H5v1Z"/><path class="cls-1" d="M10.48,9.24a5.13,5.13,0,0,1,.32-1.8H0v5H11.6A5.2,5.2,0,0,1,10.48,9.24ZM5,10.44H2v-1H5Z"/><path class="cls-2" d="M34,8.59a4,4,0,0,0-3.76-3.94V4.56A4.61,4.61,0,0,0,25.58,0a4.69,4.69,0,0,0-3.86,2,4,4,0,0,0-4.85,1.66A3.72,3.72,0,0,0,16.36,6h-.51a3.29,3.29,0,1,0,0,6.58H30.18a3.37,3.37,0,0,0,2-.64A3.9,3.9,0,0,0,34,8.59Z"/></g></g></svg>