<svg xmlns="http://www.w3.org/2000/svg" width="23" height="17" viewBox="0 0 23 17"><defs><style>.cls-1{fill:#c4e0ff;}</style></defs><title>cloud server</title><g id="Layer_2" data-name="Layer 2"><g id="Layer_1-2" data-name="Layer 1"><path class="cls-1" d="M19.66,13.09H15.85A5.39,5.39,0,0,1,12.62,12H0v3.38A1.63,1.63,0,0,0,1.62,17H21.38A1.63,1.63,0,0,0,23,15.38V13.09ZM5,15H2V14H5Z"/><path class="cls-1" d="M14.53,2.67a5.47,5.47,0,0,1,.62-1.48A5.69,5.69,0,0,1,16.08,0H1.62A1.63,1.63,0,0,0,0,1.62V5H11.31A5.3,5.3,0,0,1,14.53,2.67ZM2,3V2H5V3Z"/><path class="cls-1" d="M10.48,7.8A5.13,5.13,0,0,1,10.8,6H0v5H11.6A5.2,5.2,0,0,1,10.48,7.8ZM5,9H2V8H5Z"/></g></g></svg>