<svg xmlns="http://www.w3.org/2000/svg" width="33.61" height="19" viewBox="0 0 33.61 19">
    <g id="Group_134" data-name="Group 134" transform="translate(-638 -491)">
        <path id="_-e-Shape_559" d="M3523.61 1835.87a4.087 4.087 0 0 0-3.83-4.06v-.1a4.735 4.735 0 0 0-4.76-4.71 4.8 4.8 0 0 0-3.94 2.05 4.1 4.1 0 0 0-1.46-.27 4.032 4.032 0 0 0-3.49 1.99 3.943 3.943 0 0 0-.51 2.37h-.53a3.4 3.4 0 0 0 0 6.8h14.62a3.467 3.467 0 0 0 2.03-.66 4.084 4.084 0 0 0 1.87-3.41z" fill="#ff4d6a" fill-rule="evenodd" data-name="-e-Shape 559" transform="translate(-2852 -1336)"/>
        <path id="_-e-Shape_558" d="M3508.66 1841.01h-3.81c-1.22 0-2.12.01-3.23-.01H3489v3.38a1.626 1.626 0 0 0 1.62 1.62h19.76a1.626 1.626 0 0 0 1.62-1.62v-3.37h-3.34zM3494 1844h-3v-1h3zm9.53-12.33a5.47 5.47 0 0 1 .62-1.48 5.678 5.678 0 0 1 .93-1.19h-14.46a1.626 1.626 0 0 0-1.62 1.62v3.38h11.31a5.3 5.3 0 0 1 3.22-2.33zm-12.53.33v-1h3v1zm8.48 4.8a5.125 5.125 0 0 1 .32-1.8H3489v5h11.6a5.2 5.2 0 0 1-1.12-3.2zm-5.48 1.2h-3v-1h3z" fill="#c5e1ff" fill-rule="oddeven" data-name="-e-Shape 558" transform="translate(-2851 -1336)"/>
    </g>
</svg>
