<?xml version="1.0" encoding="utf-8"?><svg xmlns="http://www.w3.org/2000/svg" xmlns:xlink="http://www.w3.org/1999/xlink"><symbol viewBox="0 0 8 14" id="active"><defs><style>.acls-1{fill:#a7cff7}</style></defs><title>active</title><g id="aLayer_2" data-name="Layer 2"><path class="acls-1" d="M7.44 0H.56A.56.56 0 0 0 0 .56v12.88a.56.56 0 0 0 .56.56h6.88a.56.56 0 0 0 .56-.56V.56A.56.56 0 0 0 7.44 0zm-.16.72V10H.72V.72zM3 12a1 1 0 1 1 1 1 1 1 0 0 1-1-1z" id="aLayer_1-2" data-name="Layer 1"/></g></symbol><symbol viewBox="0 0 8.14 15.57" id="arrow"><defs><style>.bcls-1{fill:#6f859d}</style></defs><title>arrow</title><g id="bLayer_2" data-name="Layer 2"><path class="bcls-1" d="M.07 14.57h8v1h-8zm0-3h8v2h-8zm0-4h8v3h-8zm4-7.57L0 6.07h8.14L4.07 0z" id="bLayer_1-2" data-name="Layer 1"/></g></symbol><symbol viewBox="0 0 11.39 7.95" id="collapse"><defs><style>.ccls-1{fill:#a7cff7}</style></defs><title>collapse</title><g id="cLayer_2" data-name="Layer 2"><path class="ccls-1" d="M11.39 1.41L9.98 0 6 3.98l3.98 3.97 1.41-1.41-2.56-2.56 2.56-2.57zM3.98 0L0 3.98l3.98 3.97 1.41-1.41-2.56-2.56 2.56-2.57L3.98 0z" id="cLayer_1-2" data-name="Layer 1"/></g></symbol><symbol viewBox="0 0 5.39 7.95" id="collapse_2"><defs><style>.dcls-1{fill:#a7cff7}</style></defs><title>collapse_2</title><g id="dLayer_2" data-name="Layer 2"><path class="dcls-1" d="M5.39 1.41L3.98 0 0 3.98l3.98 3.97 1.41-1.41-2.56-2.56 2.56-2.57z" id="dLayer_1-2" data-name="Layer 1"/></g></symbol><symbol viewBox="0 0 8 14" id="device"><defs><style>.ecls-1{fill:#6a8699}</style></defs><title>device</title><g id="eLayer_2" data-name="Layer 2"><path class="ecls-1" d="M7.44 0H.56A.56.56 0 0 0 0 .56v12.88a.56.56 0 0 0 .56.56h6.88a.56.56 0 0 0 .56-.56V.56A.56.56 0 0 0 7.44 0zm-.16.72V10H.72V.72zM3 12a1 1 0 1 1 1 1 1 1 0 0 1-1-1z" id="eLayer_1-2" data-name="Layer 1"/></g></symbol><symbol viewBox="0 0 8 14" id="downloading_1"><defs><style>.fcls-1{fill:#6cfff8}</style></defs><title>downloading_1</title><g id="fLayer_2" data-name="Layer 2"><path class="fcls-1" d="M7.44 0H.56A.56.56 0 0 0 0 .56v12.88a.56.56 0 0 0 .56.56h6.88a.56.56 0 0 0 .56-.56V.56A.56.56 0 0 0 7.44 0zm-.16.72V10H.72V.72zM3 12a1 1 0 1 1 1 1 1 1 0 0 1-1-1z" id="fLayer_1-2" data-name="Layer 1"/></g></symbol><symbol viewBox="0 0 12.86 18.86" id="inactive"><defs><style>.gcls-1{fill:#6a8699}</style></defs><title>inactive</title><g id="gLayer_2" data-name="Layer 2"><g id="gLayer_1-2" data-name="Layer 1"><path class="gcls-1" d="M7.5 0a5.35 5.35 0 0 0-5.31 4.86H.56a.56.56 0 0 0-.56.56V18.3a.56.56 0 0 0 .56.56h6.88A.56.56 0 0 0 8 18.3v-7.63A5.35 5.35 0 0 0 7.5 0zM4 17.86a1 1 0 1 1 1-1 1 1 0 0 1-1 1zm3.28-3H.72V5.59h1.44a5.35 5.35 0 0 0 5.12 5.11zM7.5 10a4.64 4.64 0 1 1 4.64-4.64A4.64 4.64 0 0 1 7.5 10z"/><path class="gcls-1" d="M9.76 3.11a.36.36 0 0 0-.52 0L7.51 4.84 5.76 3.11a.36.36 0 0 0-.52 0 .36.36 0 0 0 0 .51L7 5.35 5.24 7.11a.36.36 0 0 0 0 .51.39.39 0 0 0 .26.1.37.37 0 0 0 .26-.1l1.73-1.74 1.75 1.74a.39.39 0 0 0 .26.1.37.37 0 0 0 .26-.1.36.36 0 0 0 0-.51L8 5.37l1.76-1.75a.36.36 0 0 0 0-.51z"/></g></g></symbol><symbol viewBox="0 0 13.88 13.88" id="info"><defs><style>.hcls-1{fill:#a7cff7}</style></defs><title>info</title><g id="hLayer_2" data-name="Layer 2"><g id="hLayer_1-2" data-name="Layer 1"><path class="hcls-1" d="M6.94 0a6.94 6.94 0 1 0 6.94 6.94A6.94 6.94 0 0 0 6.94 0zm0 13A6.06 6.06 0 1 1 13 6.94 6.07 6.07 0 0 1 6.94 13z"/><path class="hcls-1" d="M6.44 5.44h1v5h-1zm0-2h1v1h-1z"/></g></g></symbol><symbol viewBox="0 0 8 14" id="initializing"><defs><style>.icls-1{fill:#6cfff8}</style></defs><title>initializing</title><g id="iLayer_2" data-name="Layer 2"><g id="iLayer_1-2" data-name="Layer 1"><path class="icls-1" d="M7.44 0H.56A.56.56 0 0 0 0 .56v12.88a.56.56 0 0 0 .56.56H3v-.72H.72v-2.56h6.56V12H8v-2H.72V.72h6.56V4H8V.56A.56.56 0 0 0 7.44 0z"/><path class="icls-1" d="M7.28 5.98H8V8h-.72zm-2.3 7.3h2.29V14H4.98zM4 11.2a.8.8 0 1 0 .8.8.8.8 0 0 0-.8-.8z"/></g></g></symbol><symbol viewBox="0 0 12.99 14" id="lost_connection"><defs><style>.jcls-1{fill:#f27836}</style></defs><title>lost_connection</title><g id="jLayer_2" data-name="Layer 2"><g id="jLayer_1-2" data-name="Layer 1"><path class="jcls-1" d="M9.77 10H3.22v-.43l-.73.43v3.45a.57.57 0 0 0 .57.56h6.87a.56.56 0 0 0 .56-.56V5.32l-.72.43zm-3.28 3a1 1 0 1 1 1-1 1 1 0 0 1-1 1zM3.22.72h6.55v2.71l.72-.43V.56A.56.56 0 0 0 9.93 0H3.06a.57.57 0 0 0-.57.56v7.12l.73-.43z"/><path class="jcls-1" transform="rotate(-30.26 6.498 6.5)" d="M-.81 6.14h14.62v.72H-.81z"/></g></g></symbol><symbol viewBox="0 0 12.99 14" id="lost_connection2"><defs><style>.kcls-1{fill:#ff4d6a}</style></defs><title>lost_connection2</title><g id="kLayer_2" data-name="Layer 2"><g id="kLayer_1-2" data-name="Layer 1"><path class="kcls-1" d="M9.77 10H3.22v-.43l-.73.43v3.45a.57.57 0 0 0 .57.56h6.87a.56.56 0 0 0 .56-.56V5.32l-.72.43zm-3.28 3a1 1 0 1 1 1-1 1 1 0 0 1-1 1zM3.22.72h6.55v2.71l.72-.43V.56A.56.56 0 0 0 9.93 0H3.06a.57.57 0 0 0-.57.56v7.12l.73-.43z"/><path class="kcls-1" transform="rotate(-30.26 6.498 6.5)" d="M-.81 6.14h14.62v.72H-.81z"/></g></g></symbol><symbol viewBox="0 0 12.86 18.86" id="reign"><defs><style>.lcls-1{fill:#6a8699}</style></defs><title>reign</title><g id="lLayer_2" data-name="Layer 2"><path class="lcls-1" d="M12.86 5.36a5.35 5.35 0 0 0-10.67-.5H.56a.56.56 0 0 0-.56.56V18.3a.56.56 0 0 0 .56.56h6.88A.56.56 0 0 0 8 18.3v-7.63a5.34 5.34 0 0 0 4.86-5.31zM4 17.86a1 1 0 1 1 1-1 1 1 0 0 1-1 1zm-3.28-3V5.59h1.44a5.35 5.35 0 0 0 5.12 5.11v4.16zM7.5 10a4.64 4.64 0 1 1 4.64-4.64A4.64 4.64 0 0 1 7.5 10zM5.37 7.58a.31.31 0 0 1-.22-.09.33.33 0 0 1 0-.45L9 3.24a.31.31 0 0 1 .53.22v2.88a.31.31 0 0 1-.31.31.32.32 0 0 1-.32-.31V4.22L5.6 7.49a.35.35 0 0 1-.23.09zm3.81-3.81H6.52a.31.31 0 0 1-.32-.31.32.32 0 0 1 .32-.32h2.66a.32.32 0 0 1 .31.32.31.31 0 0 1-.31.31z" id="lLayer_1-2" data-name="Layer 1"/></g></symbol><symbol viewBox="0 0 12.86 18.86" id="wifi_issue"><defs><style>.mcls-1{fill:#6a8699}</style></defs><title>wifi_issue</title><g id="mLayer_2" data-name="Layer 2"><g id="mLayer_1-2" data-name="Layer 1"><path class="mcls-1" d="M12.86 5.36a5.35 5.35 0 0 0-10.67-.5H.56a.56.56 0 0 0-.56.56V18.3a.56.56 0 0 0 .56.56h6.88A.56.56 0 0 0 8 18.3v-7.63a5.34 5.34 0 0 0 4.86-5.31zM4 17.86a1 1 0 1 1 1-1 1 1 0 0 1-1 1zm-3.28-3V5.59h1.44a5.35 5.35 0 0 0 5.12 5.11v4.16zM7.5 10a4.64 4.64 0 1 1 4.64-4.64A4.64 4.64 0 0 1 7.5 10z"/><path class="mcls-1" d="M6.9 7.2h.72v.96H6.9zm.46-4.3a4.91 4.91 0 0 0-1.22.21L6 3.14l.08.61.33-.09a4.3 4.3 0 0 1 .88-.12 1.33 1.33 0 0 1 .71.15.52.52 0 0 1 .19.45 1 1 0 0 1-.1.5 2.48 2.48 0 0 1-.47.48 6 6 0 0 0-.57.57.93.93 0 0 0-.2.54 1.52 1.52 0 0 0 .15.45v.08h.59v-.38A.55.55 0 0 1 7.71 6a3.6 3.6 0 0 1 .52-.51 2.28 2.28 0 0 0 .54-.6 1.53 1.53 0 0 0 .15-.75 1.14 1.14 0 0 0-.41-1 2 2 0 0 0-1.15-.24z"/></g></g></symbol></svg>