<svg xmlns="http://www.w3.org/2000/svg" width="23" height="17" viewBox="0 0 23 17"><defs><style>.cls-1{fill:#c4e0ff;}</style></defs><title>pioneer_server</title><g id="Layer_2" data-name="Layer 2"><g id="Layer_1-2" data-name="Layer 1"><path class="cls-1" d="M13,4a9.92,9.92,0,0,1,.84-4H1.62A1.63,1.63,0,0,0,0,1.62V5H13.05C13,4.67,13,4.34,13,4ZM5,3H2V2H5Z"/><path class="cls-1" d="M13.2,6H0v5H15.87A9.92,9.92,0,0,1,13.2,6ZM2,9V8H5V9Z"/><path class="cls-1" d="M0,12v3.38A1.63,1.63,0,0,0,1.62,17H21.38A1.63,1.63,0,0,0,23,15.38V14a9.9,9.9,0,0,1-6-2Zm5,3H2V14H5Z"/></g></g></svg>