<svg xmlns="http://www.w3.org/2000/svg" viewBox="0 0 83 83"><defs><style>.cls-1{fill:#c5e1ff;}</style></defs><title>browser</title><g id="Layer_2" data-name="Layer 2"><g id="Layer_1-2" data-name="Layer 1"><path class="cls-1" d="M28.2,24.94h0A1.85,1.85,0,0,1,30,26.78v0a1.84,1.84,0,0,1-1.84,1.84h0a1.84,1.84,0,0,1-1.84-1.84v0A1.84,1.84,0,0,1,28.2,24.94Z"/><path class="cls-1" d="M33.52,24.94h0a1.85,1.85,0,0,1,1.85,1.85v0a1.84,1.84,0,0,1-1.84,1.84h0a1.85,1.85,0,0,1-1.85-1.85v0a1.84,1.84,0,0,1,1.84-1.84Z"/><path class="cls-1" d="M22.89,24.94h0a1.85,1.85,0,0,1,1.85,1.85v0a1.84,1.84,0,0,1-1.84,1.84h0A1.84,1.84,0,0,1,21,26.78v0A1.84,1.84,0,0,1,22.89,24.94Z"/><path class="cls-1" d="M78,0H5A5,5,0,0,0,0,5V78a5,5,0,0,0,5,5H78a5,5,0,0,0,5-5V5A5,5,0,0,0,78,0ZM65.58,66.7a.92.92,0,0,1-.92.92H18.33a.92.92,0,0,1-.92-.92V35.2H65.58Zm0-34.77H17.42V24.67a3.29,3.29,0,0,1,3.29-3.29H62.29a3.29,3.29,0,0,1,3.29,3.29Z"/><path class="cls-1" d="M41.62,62.46A11.5,11.5,0,1,0,30.12,51,11.51,11.51,0,0,0,41.62,62.46Zm-8.35-10.4.06-.18a.39.39,0,0,0-.37-.49.44.44,0,0,1-.49-.43.38.38,0,0,0-.33-.37,9.5,9.5,0,0,1,.17-1.53h.47a.34.34,0,0,1,.31.18l.24.37a.34.34,0,0,0,.31.18h.49l-.31-.8a.41.41,0,0,1,.12-.43l.8-.73c.06-.06.06-.12.12-.18l.18-.55a.34.34,0,0,1,.37-.24.39.39,0,0,0,.37-.37v-.18a.53.53,0,0,1,.18-.37l2-1.1a.4.4,0,0,0,.12-.55L37,42.69a9.43,9.43,0,0,1,2.3-.92v.07a.6.6,0,0,0,.61.49h.18a.54.54,0,0,1,.55.37l.31.55a.7.7,0,0,0,.55.37h.8a.87.87,0,0,0,.37-.12l.55-.43a.66.66,0,0,1,.49-.12l.24.06a.58.58,0,0,0,.61-.24l.31-.37a.43.43,0,0,0,.12-.32,9.53,9.53,0,0,1,6,6.89l-.07,0c-.12.06-.24.12-.31.06l-.86-.31a.2.2,0,0,1-.18-.18l-.18-.37A.34.34,0,0,0,49,48h-1.1a.37.37,0,0,0-.24.06l-2.57,2.08a.46.46,0,0,0-.12.24v2a.32.32,0,0,0,.12.24l.8.8a.32.32,0,0,0,.24.12l2.08.18c.06,0,.12,0,.12.06l.67.43a.34.34,0,0,1,.06.55.3.3,0,0,0,0,.43l.64.76a9.46,9.46,0,0,1-10.79,4.12l1.83-1.94c.06-.06.06-.12.12-.18L41,56.71c0-.06.06-.18.12-.18l.18-.18a.47.47,0,0,0-.12-.61l-1.41-1c-.06-.06-.12-.06-.24-.06H39.2a.35.35,0,0,1-.37-.37l-.06-.43a.39.39,0,0,0-.37-.37h-.49a.39.39,0,0,1-.37-.49v-.06a.39.39,0,0,0-.37-.49L36,52.37a.23.23,0,0,1-.18-.06l-.37-.18a.27.27,0,0,0-.31,0l-.61.24h-.06l-.73.18A.38.38,0,0,1,33.27,52.06Z"/></g></g></svg>