<svg xmlns="http://www.w3.org/2000/svg" width="23" height="23">
    <path fill="#C5E1FF" fill-rule="evenodd" d="M20.699 9.82a9.204 9.204 0 0 0-1.519-3.635l1.454-1.807-2.026-2.02-1.825 1.46a9.265 9.265 0 0 0-3.627-1.469L12.896 0H10.03l-.263 2.377a9.279 9.279 0 0 0-3.496 1.458L4.422 2.358l-2.026 2.02 1.479 1.841A9.205 9.205 0 0 0 2.382 9.81L0 10.072v2.856l2.385.263a9.216 9.216 0 0 0 1.487 3.566l-1.469 1.828 2.026 2.02 1.835-1.466a9.278 9.278 0 0 0 3.502 1.464L10.03 23h2.866l.261-2.369a9.287 9.287 0 0 0 3.612-1.459l1.839 1.47 2.026-2.02-1.461-1.816a9.23 9.23 0 0 0 1.523-3.626L23 12.928v-2.856l-2.301-.252zM11.5 15.467A3.974 3.974 0 0 1 7.52 11.5a3.974 3.974 0 0 1 3.98-3.967 3.974 3.974 0 0 1 3.98 3.967 3.974 3.974 0 0 1-3.98 3.967z"/>
</svg>
