<svg xmlns="http://www.w3.org/2000/svg" width="21" height="21">
    <path fill="#C5E1FF" fill-rule="evenodd" d="M10.499.001C4.71.001 0 4.711 0 10.5c0 5.789 4.71 10.499 10.499 10.499 5.79 0 10.499-4.71 10.499-10.499 0-5.789-4.709-10.499-10.499-10.499zm0 19.644a9.117 9.117 0 0 1-6.807-3.049c-.513-.572-.293-1.51.433-1.761a.088.088 0 0 0 .015-.005c.055-.018 3.59-.921 4.095-1.925.231-.459.003-1.047-.227-1.452a6.95 6.95 0 0 1-.307-.45l-.001-.001c-.599-.958-1.055-2.219-1.102-3.777-.07-2.344 1.744-4.247 3.896-4.253h.01c2.154.006 3.967 1.909 3.897 4.253-.046 1.558-.503 2.819-1.102 3.777v.001a6.958 6.958 0 0 1-.308.45c-.23.405-.458.993-.227 1.452.506 1.004 4.041 1.907 4.095 1.925l.014.005c.727.251.947 1.188.434 1.761a9.123 9.123 0 0 1-6.808 3.049z"/>
</svg>
