<svg xmlns="http://www.w3.org/2000/svg" viewBox="0 0 229 229"><defs><style>.cls-1{fill:#788ca2;}</style></defs><title>avatar</title><g id="Layer_2" data-name="Layer 2"><g id="Layer_1-2" data-name="Layer 1"><path class="cls-1" d="M0,0V229H20.41l-.27-.22a40.23,40.23,0,0,1,7-5L71,199.85a18,18,0,0,0,9.34-15.7v-18a97.69,97.69,0,0,1-17.79-36.78A14.82,14.82,0,0,1,55.78,117V97.34a14.67,14.67,0,0,1,4.93-10.91V58s-5.84-44.23,54.06-44.23S168.85,58,168.85,58V86.43a14.64,14.64,0,0,1,4.93,10.91V117a14.75,14.75,0,0,1-10.48,14,107.68,107.68,0,0,1-14.59,29.42,64.91,64.91,0,0,1-4.44,5.71v18.42a17.94,17.94,0,0,0,9.91,16l47,23.48a38.63,38.63,0,0,1,7.4,4.91H229V0Z"/></g></g></svg>