<?xml version="1.0" encoding="utf-8"?>
<!-- Generated by IcoMoon.io -->
<svg version="1.1" xmlns="http://www.w3.org/2000/svg" xmlns:xlink="http://www.w3.org/1999/xlink" width="752" height="32" viewBox="0 0 752 32">
<svg id="icon-active" width="18" height="32" viewBox="0 0 18 32" x="0" y="0">
<path fill="#a7cff7" d="M17.006 0h-15.726c-0.707 0-1.28 0.573-1.28 1.28v0 29.44c0 0.707 0.573 1.28 1.28 1.28v0h15.726c0.707 0 1.28-0.573 1.28-1.28v0-29.44c0-0.707-0.573-1.28-1.28-1.28v0zM16.64 1.646v21.211h-14.994v-21.211zM6.857 27.429c0-1.262 1.023-2.286 2.286-2.286s2.286 1.023 2.286 2.286c0 1.262-1.023 2.286-2.286 2.286v0c-1.262 0-2.286-1.023-2.286-2.286v0z"></path>
</svg>
<svg id="icon-arrow" width="17" height="32" viewBox="0 0 17 32" x="48" y="0">
<path fill="#6f859d" d="M0.144 29.945h16.442v2.055h-16.442v-2.055z"></path>
<path fill="#6f859d" d="M0.144 23.779h16.442v4.11h-16.442v-4.11z"></path>
<path fill="#6f859d" d="M0.144 15.558h16.442v6.166h-16.442v-6.166z"></path>
<path fill="#6f859d" d="M8.365 0l-8.365 12.475h16.73l-8.365-12.475z"></path>
</svg>
<svg id="icon-collapse" width="46" height="32" viewBox="0 0 46 32" x="96" y="0">
<path fill="#a7cff7" d="M45.847 5.675l-5.675-5.675-16.020 16.020 16.020 15.98 5.675-5.675-10.304-10.304 10.304-10.345z"></path>
<path fill="#a7cff7" d="M16.020 0l-16.020 16.020 16.020 15.98 5.675-5.675-10.304-10.304 10.304-10.345-5.675-5.675z"></path>
</svg>
<svg id="icon-collapse_2" width="22" height="32" viewBox="0 0 22 32" x="192" y="0">
<path fill="#a7cff7" d="M21.696 5.675l-5.675-5.675-16.020 16.020 16.020 15.98 5.675-5.675-10.304-10.304 10.304-10.345z"></path>
</svg>
<svg id="icon-device" width="18" height="32" viewBox="0 0 18 32" x="240" y="0">
<path fill="#6a8699" d="M17.006 0h-15.726c-0.707 0-1.28 0.573-1.28 1.28v0 29.44c0 0.707 0.573 1.28 1.28 1.28v0h15.726c0.707 0 1.28-0.573 1.28-1.28v0-29.44c0-0.707-0.573-1.28-1.28-1.28v0zM16.64 1.646v21.211h-14.994v-21.211zM6.857 27.429c0-1.262 1.023-2.286 2.286-2.286s2.286 1.023 2.286 2.286c0 1.262-1.023 2.286-2.286 2.286v0c-1.262 0-2.286-1.023-2.286-2.286v0z"></path>
</svg>
<svg id="icon-downloading_1" width="18" height="32" viewBox="0 0 18 32" x="288" y="0">
<path fill="#6cfff8" d="M17.006 0h-15.726c-0.707 0-1.28 0.573-1.28 1.28v0 29.44c0 0.707 0.573 1.28 1.28 1.28v0h15.726c0.707 0 1.28-0.573 1.28-1.28v0-29.44c0-0.707-0.573-1.28-1.28-1.28v0zM16.64 1.646v21.211h-14.994v-21.211zM6.857 27.429c0-1.262 1.023-2.286 2.286-2.286s2.286 1.023 2.286 2.286c0 1.262-1.023 2.286-2.286 2.286v0c-1.262 0-2.286-1.023-2.286-2.286v0z"></path>
</svg>
<svg id="icon-inactive" width="22" height="32" viewBox="0 0 22 32" x="336" y="0">
<path fill="#6a8699" d="M12.725 0c-4.708 0.016-8.571 3.614-9.007 8.21l-0.003 0.036h-2.766c-0.525 0-0.95 0.425-0.95 0.95v0 21.854c0 0.525 0.425 0.95 0.95 0.95v0h11.673c0.525 0 0.95-0.425 0.95-0.95v0-12.946c4.586-0.499 8.123-4.35 8.123-9.027 0-4.976-4.004-9.017-8.966-9.077l-0.006-0zM6.787 30.303c-0.937 0-1.697-0.76-1.697-1.697s0.76-1.697 1.697-1.697c0.937 0 1.697 0.76 1.697 1.697v0c0 0.937-0.76 1.697-1.697 1.697v0zM12.352 25.213h-11.13v-15.729h2.443c0.214 4.706 3.98 8.466 8.668 8.67l0.019 0.001zM12.725 16.967c-4.348 0-7.873-3.525-7.873-7.873s3.525-7.873 7.873-7.873c4.348 0 7.873 3.525 7.873 7.873v0c0 4.348-3.525 7.873-7.873 7.873v0z"></path>
<path fill="#6a8699" d="M16.56 5.277c-0.111-0.116-0.268-0.188-0.441-0.188s-0.33 0.072-0.441 0.188l-2.936 2.936-2.969-2.935c-0.111-0.116-0.268-0.188-0.441-0.188s-0.33 0.072-0.441 0.188l-0 0c-0.111 0.111-0.18 0.264-0.18 0.433s0.069 0.322 0.18 0.433l0 0 2.986 2.935-2.986 2.986c-0.111 0.111-0.18 0.264-0.18 0.433s0.069 0.322 0.18 0.433l0 0c0.116 0.105 0.271 0.169 0.441 0.17h0c0.004 0 0.008 0 0.012 0 0.166 0 0.317-0.065 0.43-0.17l-0 0 2.935-2.952 2.969 2.952c0.116 0.105 0.271 0.169 0.441 0.17h0c0.003 0 0.008 0 0.012 0 0.166 0 0.317-0.065 0.43-0.17l-0 0c0.111-0.111 0.18-0.264 0.18-0.433s-0.069-0.322-0.18-0.433l-0-0-2.986-2.952 2.986-2.969c0.111-0.111 0.18-0.264 0.18-0.433s-0.069-0.322-0.18-0.433l-0-0z"></path>
</svg>
<svg id="icon-info" width="32" height="32" viewBox="0 0 32 32" x="384" y="0">
<path fill="#a7cff7" d="M16 0c-8.837 0-16 7.163-16 16s7.163 16 16 16c8.837 0 16-7.163 16-16v0c0-8.837-7.163-16-16-16v0zM16 29.971c-7.716 0-13.971-6.255-13.971-13.971s6.255-13.971 13.971-13.971c7.716 0 13.971 6.255 13.971 13.971v0c-0.013 7.711-6.26 13.958-13.97 13.971h-0.001z"></path>
<path fill="#a7cff7" d="M14.847 12.542h2.305v11.527h-2.305v-11.527z"></path>
<path fill="#a7cff7" d="M14.847 7.931h2.305v2.305h-2.305v-2.305z"></path>
</svg>
<svg id="icon-initializing" width="18" height="32" viewBox="0 0 18 32" x="432" y="0">
<path fill="#6cfff8" d="M17.006 0h-15.726c-0.707 0-1.28 0.573-1.28 1.28v0 29.44c0 0.707 0.573 1.28 1.28 1.28v0h5.577v-1.646h-5.211v-5.851h14.994v2.926h1.646v-4.571h-16.64v-21.211h14.994v7.497h1.646v-7.863c0-0.707-0.573-1.28-1.28-1.28v0z"></path>
<path fill="#6cfff8" d="M16.64 13.669h1.646v4.617h-1.646v-4.617z"></path>
<path fill="#6cfff8" d="M11.383 30.354h5.234v1.646h-5.234v-1.646z"></path>
<path fill="#6cfff8" d="M9.143 25.6c-1.010 0-1.829 0.819-1.829 1.829s0.819 1.829 1.829 1.829c1.010 0 1.829-0.819 1.829-1.829v0c0-1.010-0.819-1.829-1.829-1.829v0z"></path>
</svg>
<svg id="icon-lost_connection" width="30" height="32" viewBox="0 0 30 32" x="480" y="0">
<path fill="#f27836" d="M22.331 22.857h-14.971v-0.983l-1.669 0.983v7.886c0.013 0.71 0.591 1.28 1.303 1.28 0 0 0 0 0 0h15.703c0.707 0 1.28-0.573 1.28-1.28v0-18.583l-1.646 0.983zM14.834 29.714c-1.262 0-2.286-1.023-2.286-2.286s1.023-2.286 2.286-2.286c1.262 0 2.286 1.023 2.286 2.286v0c0 1.262-1.023 2.286-2.286 2.286v0z"></path>
<path fill="#f27836" d="M7.36 1.646h14.971v6.194l1.646-0.983v-5.577c0-0.707-0.573-1.28-1.28-1.28h-15.703c-0 0-0 0-0 0-0.712 0-1.29 0.57-1.303 1.279l-0 0.001v16.274l1.669-0.983z"></path>
<path fill="#f27836" d="M0.010 22.564l28.864-16.84 0.829 1.421-28.864 16.84-0.829-1.421z"></path>
</svg>
<svg id="icon-lost_connection2" width="30" height="32" viewBox="0 0 30 32" x="528" y="0">
<path fill="#ff4d6a" d="M22.331 22.857h-14.971v-0.983l-1.669 0.983v7.886c0.013 0.71 0.591 1.28 1.303 1.28 0 0 0 0 0 0h15.703c0.707 0 1.28-0.573 1.28-1.28v0-18.583l-1.646 0.983zM14.834 29.714c-1.262 0-2.286-1.023-2.286-2.286s1.023-2.286 2.286-2.286c1.262 0 2.286 1.023 2.286 2.286v0c0 1.262-1.023 2.286-2.286 2.286v0z"></path>
<path fill="#ff4d6a" d="M7.36 1.646h14.971v6.194l1.646-0.983v-5.577c0-0.707-0.573-1.28-1.28-1.28h-15.703c-0 0-0 0-0 0-0.712 0-1.29 0.57-1.303 1.279l-0 0.001v16.274l1.669-0.983z"></path>
<path fill="#ff4d6a" d="M0.010 22.564l28.864-16.84 0.829 1.421-28.864 16.84-0.829-1.421z"></path>
</svg>
<svg id="icon-reign" width="22" height="32" viewBox="0 0 22 32" x="576" y="0">
<path fill="#6a8699" d="M21.82 9.094c-0.060-4.968-4.101-8.972-9.077-8.972-4.677 0-8.528 3.537-9.024 8.083l-0.004 0.040h-2.766c-0.525 0-0.95 0.425-0.95 0.95v0 21.854c0 0.525 0.425 0.95 0.95 0.95v0h11.673c0.525 0 0.95-0.425 0.95-0.95v0-12.946c4.636-0.431 8.238-4.298 8.246-9.009v-0.001zM6.787 30.303c-0.937 0-1.697-0.76-1.697-1.697s0.76-1.697 1.697-1.697c0.937 0 1.697 0.76 1.697 1.697v0c0 0.937-0.76 1.697-1.697 1.697v0zM1.222 25.213v-15.729h2.443c0.214 4.706 3.98 8.466 8.668 8.67l0.019 0.001v7.058zM12.725 16.967c-4.348 0-7.873-3.525-7.873-7.873s3.525-7.873 7.873-7.873c4.348 0 7.873 3.525 7.873 7.873v0c0 4.348-3.525 7.873-7.873 7.873v0zM9.111 12.861c-0.001 0-0.002 0-0.003 0-0.145 0-0.276-0.058-0.371-0.153l0 0c-0.093-0.1-0.15-0.234-0.15-0.382s0.057-0.282 0.151-0.382l-0 0 6.532-6.447c0.095-0.096 0.227-0.155 0.373-0.155 0.29 0 0.526 0.236 0.526 0.526 0 0.001 0 0.002 0 0.003v-0 4.887c0 0.29-0.236 0.526-0.526 0.526v0c-0 0-0 0-0 0-0.294 0-0.533-0.233-0.543-0.525l-0-0.001v-3.597l-5.599 5.548c-0.103 0.093-0.24 0.151-0.39 0.153h-0zM15.576 6.397h-4.513c-0.005 0-0.011 0-0.017 0-0.29 0-0.526-0.236-0.526-0.526 0-0 0-0 0-0v0c0-0.3 0.243-0.543 0.543-0.543v0h4.513c0.292 0.009 0.526 0.249 0.526 0.543 0 0 0 0 0 0v0c0 0.29-0.236 0.526-0.526 0.526v0z"></path>
</svg>
<svg id="icon-wifi_issue" width="22" height="32" viewBox="0 0 22 32" x="624" y="0">
<path fill="#6a8699" d="M21.82 9.094c-0.060-4.968-4.101-8.972-9.077-8.972-4.677 0-8.528 3.537-9.024 8.083l-0.004 0.040h-2.766c-0.525 0-0.95 0.425-0.95 0.95v0 21.854c0 0.525 0.425 0.95 0.95 0.95v0h11.673c0.525 0 0.95-0.425 0.95-0.95v0-12.946c4.636-0.431 8.238-4.298 8.246-9.009v-0.001zM6.787 30.303c-0.937 0-1.697-0.76-1.697-1.697s0.76-1.697 1.697-1.697c0.937 0 1.697 0.76 1.697 1.697v0c0 0.937-0.76 1.697-1.697 1.697v0zM1.222 25.213v-15.729h2.443c0.214 4.706 3.98 8.466 8.668 8.67l0.019 0.001v7.058zM12.725 16.967c-4.348 0-7.873-3.525-7.873-7.873s3.525-7.873 7.873-7.873c4.348 0 7.873 3.525 7.873 7.873v0c0 4.348-3.525 7.873-7.873 7.873v0z"></path>
<path fill="#6a8699" d="M11.707 12.216h1.222v1.629h-1.222v-1.629z"></path>
<path fill="#6a8699" d="M12.488 4.92c-0.75 0.034-1.458 0.162-2.129 0.372l0.059-0.016-0.238 0.051 0.136 1.035 0.56-0.153c0.442-0.113 0.955-0.186 1.481-0.203l0.012-0c0.046-0.003 0.1-0.005 0.154-0.005 0.384 0 0.746 0.096 1.063 0.266l-0.012-0.006c0.2 0.163 0.326 0.409 0.326 0.685 0 0.028-0.001 0.055-0.004 0.082l0-0.003c0.002 0.031 0.003 0.066 0.003 0.102 0 0.272-0.064 0.528-0.177 0.756l0.004-0.010c-0.232 0.31-0.494 0.578-0.788 0.807l-0.009 0.007c-0.347 0.304-0.663 0.62-0.957 0.956l-0.010 0.012c-0.199 0.25-0.325 0.567-0.339 0.913l-0 0.003c0.049 0.286 0.137 0.543 0.261 0.778l-0.007-0.014v0.136h1.001v-0.645c-0.001-0.018-0.002-0.039-0.002-0.060 0-0.222 0.078-0.426 0.207-0.586l-0.001 0.002c0.267-0.319 0.556-0.603 0.87-0.856l0.012-0.009c0.363-0.283 0.667-0.62 0.907-1.002l0.009-0.016c0.163-0.33 0.258-0.718 0.258-1.129 0-0.050-0.001-0.101-0.004-0.15l0 0.007c0.007-0.061 0.011-0.131 0.011-0.202 0-0.6-0.274-1.137-0.703-1.492l-0.003-0.003c-0.473-0.265-1.037-0.422-1.638-0.422-0.11 0-0.219 0.005-0.327 0.016l0.014-0.001z"></path>
</svg>
</svg>
