<svg xmlns="http://www.w3.org/2000/svg" width="25" height="36" viewBox="0 0 25 36">
    <defs>
        <style>
            .cls-1{fill:#6a8699}.cls-2{fill:#ff4d6a}
        </style>
    </defs>
    <g id="Group_153" data-name="Group 153" transform="translate(-1376 -1496)">
        <path id="Path_348" d="M1385 1504h-8a1 1 0 0 0-1 1v26a1 1 0 0 0 1 1h15a1 1 0 0 0 1-1v-18l-1-.75V1525h-15v-20h7.5zm-.5 26a1.5 1.5 0 1 1 1.5-1.5 1.5 1.5 0 0 1-1.5 1.5z" class="cls-1" data-name="Path 348"/>
        <path id="Path_349" d="M1392.5 1496a8.5 8.5 0 1 0 8.5 8.5 8.5 8.5 0 0 0-8.5-8.5zm0 15.938a7.445 7.445 0 1 1 7.437-7.438 7.438 7.438 0 0 1-7.437 7.438z" class="cls-2" data-name="Path 349"/>
        <path id="Rectangle_345" d="M0 0h7v1H0z" class="cls-2" data-name="Rectangle 345" transform="rotate(90 -53.5 1446.5)"/>
        <path id="Rectangle_346" d="M0 0h1v1H0z" class="cls-2" data-name="Rectangle 346" transform="rotate(90 -57.5 1450.5)"/>
    </g>
</svg>
