<svg xmlns="http://www.w3.org/2000/svg" width="25" height="36" viewBox="0 0 25 36">
    <defs>
        <style>
            .cls-1{fill:#a7cff7}.cls-2{fill:#6cfff8}
        </style>
    </defs>
    <g id="Group_152" data-name="Group 152" transform="translate(-1318 -1497)">
        <path id="Path_346" d="M1327 1505h-8a1 1 0 0 0-1 1v26a1 1 0 0 0 1 1h15a1 1 0 0 0 1-1v-18l-1-.75V1526h-15v-20h7.5zm-.5 26a1.5 1.5 0 1 1 1.5-1.5 1.5 1.5 0 0 1-1.5 1.5z" class="cls-1" data-name="Path 346"/>
        <path id="Path_347" d="M1334.5 1497a8.5 8.5 0 1 0 8.5 8.5 8.5 8.5 0 0 0-8.5-8.5zm.5 15.912V1510h-1v2.912a7.426 7.426 0 0 1-6.912-6.912H1330v-1h-2.912a7.287 7.287 0 0 1 .126-1 7.4 7.4 0 0 1 1.547-3.232 7.492 7.492 0 0 1 1.008-1.008 7.393 7.393 0 0 1 4.231-1.676V1501h1v-2.915a7.393 7.393 0 0 1 4.231 1.676 7.464 7.464 0 0 1 2.122 2.844 7.4 7.4 0 0 1 .433 1.4 7.287 7.287 0 0 1 .126 1H1339v1h2.912a7.426 7.426 0 0 1-6.912 6.907z" class="cls-2" data-name="Path 347"/>
        <circle id="Ellipse_58" cx="1.5" cy="1.5" r="1.5" class="cls-2" data-name="Ellipse 58" transform="translate(1333 1504)"/>
    </g>
</svg>
