<svg xmlns="http://www.w3.org/2000/svg" width="14.67" height="17.738" viewBox="0 0 14.67 17.738">
    <defs>
        <style>
            .cls-1{fill:#ff4d6a}
        </style>
    </defs>
    <path id="Path_77" d="M353.482 1298.891l-.683-1.168a1.6 1.6 0 0 1-.216-.8v-4.366c0-2.913-3.173-5.47-6.216-5.47s-6.216 2.329-6.216 5.47v4.366a1.591 1.591 0 0 1-.217.8l-.682 1.168a1.564 1.564 0 0 0 1.3 2.367h2.248a3.562 3.562 0 0 0 7.125 0h2.249a1.564 1.564 0 0 0 1.308-2.367zm-7.116 4.148a1.783 1.783 0 0 1-1.781-1.781h3.562a1.783 1.783 0 0 1-1.781 1.782zm-5.4-3.562l.5-.856a3.381 3.381 0 0 0 .46-1.7v-4.366c0-2.137 2.381-3.689 4.435-3.689 1.954 0 4.435 1.655 4.435 3.689v4.366a3.374 3.374 0 0 0 .46 1.7l.5.857z" class="cls-1" data-name="Path 77" transform="translate(-339.031 -1287.083)"/>
</svg>
